# xmcd
#
# Track frame offsets:
#	306
#	30951
#	67034
#	102647
#	132675
#	171276
#	191958
#	232787
#	259417
#	293290
#
# Disc length: 4216 seconds
#
# Revision: 0
# Processed by: cddbd v1.5.2PL0 Copyright (c) Steve Scherf et al.
# Submitted via: EasyCDDAExtractor 12.0.1.1
#
DISCID=9410740a
DTITLE=Falch and Krebs - Akustisk live [CD1)
DYEAR=2009
DGENRE=
TTITLE0=Lykkelig er den.
TTITLE1=For enden af regnbuen.
TTITLE2=Hvornår er vi der?
TTITLE3=Smiler din sol.
TTITLE4=Min historie
TTITLE5=De blå barakker.
TTITLE6=Dage.
TTITLE7=Skyggernes nat (Helmand blues)
TTITLE8=Lad mig lige se dig.
TTITLE9=Mesterværk.
EXTD=
EXTT0=
EXTT1=
EXTT2=
EXTT3=
EXTT4=
EXTT5=
EXTT6=
EXTT7=
EXTT8=
EXTT9=
PLAYORDER=
